<?xml version="1.0" encoding="UTF-8"?>
<svg xmlns="http://www.w3.org/2000/svg" xmlns:xlink="http://www.w3.org/1999/xlink" width="600px" height="600px" viewBox="0 0 600 600" version="1.1">
<g id="surface1">
<path style=" stroke:none;fill-rule:nonzero;fill:rgb(0%,0%,0%);fill-opacity:1;" d="M 256.289062 34.394531 C 142.675781 52.8125 55.472656 139.796875 38.832031 251.625 C 30.621094 307.101562 39.277344 357.46875 65.679688 410.28125 L 79.4375 438.015625 L 68.789062 450 C 40.605469 481.726562 41.050781 524.554688 70.117188 550.074219 C 97.632812 574.261719 142.230469 569.378906 169.746094 538.757812 L 179.730469 527.441406 L 193.046875 533.433594 C 250.296875 559.171875 311.09375 563.832031 370.117188 546.742188 C 432.246094 528.773438 489.941406 479.957031 520.34375 419.378906 C 529.4375 401.40625 539.199219 376.554688 539.199219 372.113281 C 538.980469 370.785156 536.761719 375 533.875 381.65625 C 510.355469 437.796875 472.414062 480.621094 419.378906 510.800781 C 404.066406 519.453125 371.449219 531.878906 349.261719 537.425781 C 322.1875 544.082031 263.164062 544.746094 236.320312 538.316406 C 217.898438 534.097656 188.832031 524.335938 185.722656 521.671875 C 184.839844 520.785156 186.390625 514.570312 189.496094 507.914062 C 197.265625 490.160156 200.589844 471.96875 200.371094 447.113281 C 200.148438 424.925781 197.484375 412.71875 179.066406 347.265625 C 176.40625 337.5 174.410156 321.523438 173.742188 304.4375 C 172.414062 271.597656 176.179688 253.625 187.71875 238.316406 C 196.597656 226.777344 197.484375 223.445312 189.71875 230.773438 C 182.171875 237.871094 160.429688 239.867188 151.777344 234.320312 C 146.226562 230.546875 146.007812 230.773438 137.574219 238.316406 L 128.921875 246.078125 L 134.914062 250.960938 C 139.796875 254.730469 143.121094 255.398438 153.773438 254.730469 C 162.871094 254.066406 166.421875 254.511719 166.421875 256.507812 C 166.421875 258.0625 165.53125 260.058594 164.199219 260.722656 C 160.203125 263.164062 153.550781 289.351562 151.996094 308.433594 C 150.21875 331.0625 152.886719 352.144531 163.535156 399.183594 C 179.066406 468.417969 174.628906 517.675781 150.21875 543.417969 C 123.59375 571.597656 80.773438 560.28125 69.671875 522.113281 C 59.46875 487.054688 77.660156 441.566406 109.839844 421.375 C 113.609375 419.15625 115.605469 417.15625 114.71875 417.15625 C 112.054688 417.15625 94.746094 426.257812 90.53125 429.808594 C 88.316406 431.804688 85.203125 432.691406 83.433594 432.027344 C 77.886719 429.808594 58.132812 386.539062 51.699219 362.796875 C 46.375 342.601562 45.707031 337.054688 45.707031 300.664062 C 45.707031 264.496094 46.375 258.726562 51.699219 238.980469 C 72.78125 160.203125 129.367188 95.859375 203.03125 66.566406 C 256.726562 45.269531 320.414062 43.273438 374.78125 61.464844 C 454.4375 88.089844 511.910156 144.453125 538.089844 221.894531 C 542.308594 234.765625 545.191406 241.640625 544.527344 237.425781 C 539.421875 209.023438 520.117188 165.757812 500.148438 137.574219 C 476.40625 103.625 445.5625 77.660156 404.957031 57.46875 C 359.914062 35.28125 304.4375 26.625 256.289062 34.394531 Z M 256.289062 34.394531 "/>
<path style=" stroke:none;fill-rule:nonzero;fill:rgb(0%,0%,0%);fill-opacity:1;" d="M 231.4375 230.773438 C 227.441406 233.207031 223.667969 237.648438 222.78125 240.976562 C 220.5625 250.074219 223.445312 305.101562 227.441406 327.296875 C 234.320312 365.679688 240.757812 377.886719 252.296875 373.667969 C 257.398438 371.894531 259.613281 366.566406 274.039062 325.074219 C 282.914062 299.335938 291.347656 275.371094 292.898438 271.820312 L 295.785156 265.160156 L 297.339844 271.375 C 298.445312 274.703125 299.78125 285.132812 300.664062 294.671875 C 302.660156 317.753906 311.761719 356.363281 317.972656 367.011719 C 326.40625 381.878906 338.164062 381.65625 345.707031 366.792969 C 348.148438 362.128906 354.367188 346.375 359.46875 331.726562 C 371.671875 297.113281 384.320312 267.828125 387.203125 268.046875 C 388.535156 268.046875 390.085938 272.929688 390.976562 278.695312 C 400.074219 340.386719 410.058594 366.792969 428.257812 376.109375 C 441.125 382.769531 462.871094 378.550781 478.847656 365.902344 C 485.945312 360.578125 501.480469 341.492188 501.480469 338.390625 C 501.480469 337.28125 498.59375 339.941406 494.824219 344.378906 C 487.71875 353.03125 468.417969 363.90625 460.203125 363.90625 C 440.015625 363.90625 428.257812 337.28125 420.488281 274.925781 C 416.492188 242.308594 413.164062 234.539062 402.960938 233.433594 C 399.183594 232.988281 394.96875 234.320312 392.308594 236.761719 C 384.539062 243.636719 372.113281 271.597656 352.8125 324.628906 C 347.703125 339.054688 342.601562 350.148438 341.714844 349.039062 C 338.832031 345.933594 333.285156 317.53125 329.511719 286.242188 C 325.515625 252.296875 323.078125 241.421875 318.195312 236.320312 C 313.535156 231.878906 303.328125 232.101562 298.890625 236.984375 C 294.671875 241.640625 278.03125 284.242188 266.9375 318.195312 C 262.71875 331.726562 258.285156 343.710938 257.398438 344.824219 C 253.847656 348.375 251.851562 320.414062 252.070312 273.375 L 252.296875 226.332031 L 245.414062 226.332031 C 241.640625 226.332031 235.203125 228.328125 231.4375 230.773438 Z M 231.4375 230.773438 "/>
</g>
</svg>
