<?xml version="1.0" encoding="UTF-8"?>
<svg xmlns="http://www.w3.org/2000/svg" xmlns:xlink="http://www.w3.org/1999/xlink" width="480px" height="480px" viewBox="0 0 480 480" version="1.1">
<g id="surface1">
<path style=" stroke:none;fill-rule:nonzero;fill:rgb(0%,0%,0%);fill-opacity:1;" d="M 205.03125 27.515625 C 114.140625 42.25 44.378906 111.835938 31.066406 201.300781 C 24.496094 245.679688 31.421875 285.976562 52.542969 328.226562 L 63.550781 350.414062 L 55.03125 360 C 32.484375 385.382812 32.839844 419.644531 56.09375 440.058594 C 78.105469 459.410156 113.785156 455.503906 135.796875 431.007812 L 143.785156 421.953125 L 154.4375 426.746094 C 200.238281 447.335938 248.875 451.066406 296.09375 437.394531 C 345.796875 423.019531 391.953125 383.964844 416.273438 335.503906 C 423.550781 321.125 431.359375 301.242188 431.359375 297.691406 C 431.183594 296.628906 429.410156 300 427.101562 305.324219 C 408.285156 350.238281 377.929688 384.496094 335.503906 408.640625 C 323.253906 415.5625 297.160156 425.503906 279.410156 429.941406 C 257.75 435.265625 210.53125 435.796875 189.054688 430.652344 C 174.320312 427.277344 151.066406 419.46875 148.578125 417.335938 C 147.871094 416.628906 149.113281 411.65625 151.597656 406.332031 C 157.8125 392.128906 160.472656 377.574219 160.296875 357.691406 C 160.117188 339.941406 157.988281 330.175781 143.253906 277.8125 C 141.125 270 139.527344 257.21875 138.992188 243.550781 C 137.929688 217.277344 140.945312 202.898438 150.175781 190.652344 C 157.277344 181.421875 157.988281 178.757812 151.773438 184.617188 C 145.738281 190.296875 128.34375 191.894531 121.421875 187.457031 C 116.980469 184.4375 116.804688 184.617188 110.058594 190.652344 L 103.136719 196.863281 L 107.929688 200.769531 C 111.835938 203.785156 114.496094 204.320312 123.019531 203.785156 C 130.296875 203.253906 133.136719 203.609375 133.136719 205.207031 C 133.136719 206.449219 132.425781 208.046875 131.359375 208.578125 C 128.164062 210.53125 122.839844 231.480469 121.597656 246.746094 C 120.175781 264.851562 122.308594 281.714844 130.828125 319.347656 C 143.253906 374.734375 139.703125 414.140625 120.175781 434.734375 C 98.875 457.277344 64.617188 448.226562 55.738281 417.691406 C 47.574219 389.644531 62.128906 353.253906 87.871094 337.101562 C 90.886719 335.324219 92.484375 333.726562 91.773438 333.726562 C 89.644531 333.726562 75.796875 341.007812 72.425781 343.847656 C 70.652344 345.445312 68.164062 346.152344 66.746094 345.621094 C 62.308594 343.847656 46.507812 309.230469 41.359375 290.238281 C 37.101562 274.082031 36.566406 269.644531 36.566406 240.53125 C 36.566406 211.597656 37.101562 206.980469 41.359375 191.183594 C 58.226562 128.164062 103.492188 76.6875 162.425781 53.253906 C 205.382812 36.214844 256.332031 34.617188 299.824219 49.171875 C 363.550781 70.472656 409.527344 115.5625 430.472656 177.515625 C 433.847656 187.8125 436.152344 193.3125 435.621094 189.941406 C 431.539062 167.21875 416.09375 132.605469 400.117188 110.058594 C 381.125 82.898438 356.449219 62.128906 323.964844 45.976562 C 287.929688 28.226562 243.550781 21.300781 205.03125 27.515625 Z M 205.03125 27.515625 "/>
<path style=" stroke:none;fill-rule:nonzero;fill:rgb(0%,0%,0%);fill-opacity:1;" d="M 185.148438 184.617188 C 181.953125 186.566406 178.933594 190.117188 178.226562 192.78125 C 176.449219 200.058594 178.757812 244.082031 181.953125 261.835938 C 187.457031 292.542969 192.605469 302.308594 201.835938 298.933594 C 205.917969 297.515625 207.691406 293.253906 219.230469 260.058594 C 226.332031 239.46875 233.078125 220.296875 234.320312 217.457031 L 236.628906 212.128906 L 237.871094 217.101562 C 238.757812 219.761719 239.824219 228.105469 240.53125 235.738281 C 242.128906 254.203125 249.410156 285.089844 254.378906 293.609375 C 261.125 305.503906 270.53125 305.324219 276.566406 293.433594 C 278.519531 289.703125 283.492188 277.101562 287.574219 265.382812 C 297.335938 237.691406 307.457031 214.261719 309.761719 214.4375 C 310.828125 214.4375 312.070312 218.34375 312.78125 222.957031 C 320.058594 272.308594 328.046875 293.433594 342.605469 300.886719 C 352.898438 306.214844 370.296875 302.839844 383.078125 292.722656 C 388.757812 288.460938 401.183594 273.195312 401.183594 270.710938 C 401.183594 269.824219 398.875 271.953125 395.859375 275.503906 C 390.175781 282.425781 374.734375 291.125 368.164062 291.125 C 352.011719 291.125 342.605469 269.824219 336.390625 219.941406 C 333.195312 193.847656 330.53125 187.632812 322.367188 186.746094 C 319.347656 186.390625 315.976562 187.457031 313.847656 189.410156 C 307.632812 194.910156 297.691406 217.277344 282.25 259.703125 C 278.164062 271.242188 274.082031 280.117188 273.371094 279.230469 C 271.066406 276.746094 266.628906 254.023438 263.609375 228.992188 C 260.414062 201.835938 258.460938 193.136719 254.554688 189.054688 C 250.828125 185.503906 242.664062 185.679688 239.113281 189.585938 C 235.738281 193.3125 222.425781 227.394531 213.550781 254.554688 C 210.175781 265.382812 206.628906 274.96875 205.917969 275.859375 C 203.078125 278.699219 201.480469 256.332031 201.65625 218.699219 L 201.835938 181.066406 L 196.332031 181.066406 C 193.3125 181.066406 188.164062 182.664062 185.148438 184.617188 Z M 185.148438 184.617188 "/>
</g>
</svg>
