<?xml version="1.0" standalone="no"?>
<!DOCTYPE svg PUBLIC "-//W3C//DTD SVG 20010904//EN"
 "http://www.w3.org/TR/2001/REC-SVG-20010904/DTD/svg10.dtd">
<svg version="1.0" xmlns="http://www.w3.org/2000/svg"
 width="270.000000pt" height="270.000000pt" viewBox="0 0 270.000000 270.000000"
 preserveAspectRatio="xMidYMid meet">

<g transform="translate(0.000000,270.000000) scale(0.100000,-0.100000)"
fill="#000000" stroke="none">
<path d="M1155 2545 c-512 -83 -905 -475 -980 -979 -37 -250 2 -477 121 -715
l62 -125 -48 -54 c-127 -143 -125 -336 6 -451 124 -109 325 -87 449 51 l45 51
60 -27 c258 -116 532 -137 798 -60 280 81 540 301 677 574 41 81 85 193 85
213 -1 6 -11 -13 -24 -43 -106 -253 -277 -446 -516 -582 -69 -39 -216 -95
-316 -120 -122 -30 -388 -33 -509 -4 -83 19 -214 63 -228 75 -4 4 3 32 17 62
35 80 50 162 49 274 -1 100 -13 155 -96 450 -12 44 -21 116 -24 193 -6 148 11
229 63 298 40 52 44 67 9 34 -34 -32 -132 -41 -171 -16 -25 17 -26 16 -64 -18
l-39 -35 27 -22 c22 -17 37 -20 85 -17 41 3 57 1 57 -8 0 -7 -4 -16 -10 -19
-18 -11 -48 -129 -55 -215 -8 -102 4 -197 52 -409 70 -312 50 -534 -60 -650
-120 -127 -313 -76 -363 96 -46 158 36 363 181 454 17 10 26 19 22 19 -12 0
-90 -41 -109 -57 -10 -9 -24 -13 -32 -10 -25 10 -114 205 -143 312 -24 91 -27
116 -27 280 0 163 3 189 27 278 95 355 350 645 682 777 242 96 529 105 774 23
359 -120 618 -374 736 -723 19 -58 32 -89 29 -70 -23 128 -110 323 -200 450
-107 153 -246 270 -429 361 -203 100 -453 139 -670 104z"/>
<path d="M1043 1660 c-18 -11 -35 -31 -39 -46 -10 -41 3 -289 21 -389 31 -173
60 -228 112 -209 23 8 33 32 98 219 40 116 78 224 85 240 l13 30 7 -28 c5 -15
11 -62 15 -105 9 -104 50 -278 78 -326 38 -67 91 -66 125 1 11 21 39 92 62
158 55 156 112 288 125 287 6 0 13 -22 17 -48 41 -278 86 -397 168 -439 58
-30 156 -11 228 46 32 24 102 110 102 124 0 5 -13 -7 -30 -27 -32 -39 -119
-88 -156 -88 -91 0 -144 120 -179 401 -18 147 -33 182 -79 187 -17 2 -36 -4
-48 -15 -35 -31 -91 -157 -178 -396 -23 -65 -46 -115 -50 -110 -13 14 -38 142
-55 283 -18 153 -29 202 -51 225 -21 20 -67 19 -87 -3 -19 -21 -94 -213 -144
-366 -19 -61 -39 -115 -43 -120 -16 -16 -25 110 -24 322 l1 212 -31 0 c-17 0
-46 -9 -63 -20z"/>
</g>
</svg>
